<svg width="40" height="40" viewBox="0 0 40 40" fill="none" xmlns="http://www.w3.org/2000/svg">
<rect width="40" height="40" rx="20" fill="#FA6A00"/>
<path d="M10 18.3333C10 13.9338 10 11.7335 11.3673 10.3673C12.7335 9 14.9338 9 19.3333 9H21.6667C26.0662 9 28.2665 9 29.6327 10.3673C31 11.7335 31 13.9338 31 18.3333V20.6667C31 25.0662 31 27.2665 29.6327 28.6327C28.2665 30 26.0662 30 21.6667 30H19.3333C14.9338 30 12.7335 30 11.3673 28.6327C10 27.2665 10 25.0662 10 20.6667V18.3333Z" fill="white" stroke="white" stroke-width="1.46457"/>
<path d="M26.7677 14.25C26.7677 14.8121 26.3121 15.2677 25.75 15.2677C25.1879 15.2677 24.7323 14.8121 24.7323 14.25C24.7323 13.6879 25.1879 13.2323 25.75 13.2323C26.3121 13.2323 26.7677 13.6879 26.7677 14.25Z" fill="black" stroke="#FA6A00" stroke-width="1.46457"/>
<path d="M20.5 23C22.433 23 24 21.433 24 19.5C24 17.567 22.433 16 20.5 16C18.567 16 17 17.567 17 19.5C17 21.433 18.567 23 20.5 23Z" stroke="#FA6A00" stroke-width="1.46457"/>
</svg>
