<svg width="48" height="48" viewBox="0 0 48 48" fill="none" xmlns="http://www.w3.org/2000/svg">
<path d="M23.9978 2.92943C28.1641 2.9292 32.2369 4.16454 35.7011 6.47923C39.1654 8.79391 41.8655 12.084 43.46 15.9334C45.0545 19.7827 45.4717 24.0185 44.659 28.1051C43.8462 32.1916 41.84 35.9453 38.8939 38.8915C35.9479 41.8377 32.1944 43.8441 28.1082 44.6569C24.0219 45.4697 19.7864 45.0525 15.9373 43.4579C12.0881 41.8633 8.79828 39.163 6.48375 35.6985C4.16921 32.234 2.93396 28.161 2.93419 23.9944C2.93419 18.4076 5.15338 13.0497 9.10356 9.09921C13.0537 5.14877 18.4113 2.92943 23.9978 2.92943ZM23.9978 0.60014C18.5986 0.600237 13.3655 2.46767 9.18592 5.88581C5.0063 9.30395 2.13733 14.0625 1.06541 19.3545C-0.00650775 24.6466 0.784604 30.1466 3.30461 34.9219C5.82462 39.6972 9.91845 43.4541 14.892 45.5555C20.6092 47.9708 27.0517 48.0159 32.8021 45.6808C38.5526 43.3457 43.1399 38.8218 45.5551 33.1042C47.9703 27.3867 48.0153 20.9438 45.6804 15.1929C43.3455 9.44212 38.8219 4.85443 33.1047 2.43912C30.2237 1.21967 27.1262 0.594197 23.9978 0.60014Z" fill="white"/>
<path d="M19.3548 32.9643C18.9305 32.9631 18.514 32.8502 18.1472 32.637C17.7777 32.4265 17.4711 32.1212 17.2588 31.7528C17.0465 31.3843 16.9363 30.9659 16.9395 30.5406V17.6631C16.9387 17.2388 17.0498 16.8217 17.2614 16.4538C17.4731 16.086 17.7779 15.7804 18.1452 15.5679C18.5125 15.3554 18.9294 15.2434 19.3537 15.2432C19.7781 15.243 20.195 15.3546 20.5625 15.5668L31.7179 22.0073C32.0847 22.2195 32.3892 22.5245 32.601 22.8917C32.8127 23.2588 32.9241 23.6752 32.9241 24.099C32.9241 24.5228 32.8127 24.9391 32.601 25.3063C32.3892 25.6734 32.0847 25.9784 31.7179 26.1907L20.5625 32.6323C20.1961 32.8472 19.7796 32.9617 19.3548 32.9643ZM19.3548 17.5758C19.3392 17.5763 19.324 17.5807 19.3106 17.5886C19.2966 17.595 19.2849 17.6057 19.2772 17.619C19.2695 17.6324 19.2661 17.6478 19.2675 17.6631V30.5453C19.2677 30.5603 19.2719 30.575 19.2795 30.5879C19.2872 30.6009 19.2981 30.6116 19.3111 30.619C19.3242 30.6264 19.339 30.6303 19.354 30.6302C19.369 30.6302 19.3838 30.6262 19.3968 30.6187L30.5522 24.1782C30.5659 24.1714 30.5772 24.1607 30.5847 24.1474C30.5921 24.1341 30.5954 24.1188 30.5941 24.1036C30.5953 24.0885 30.5919 24.0733 30.5845 24.06C30.577 24.0467 30.5658 24.036 30.5522 24.0291L19.3968 17.5886C19.3843 17.5804 19.3697 17.576 19.3548 17.5758Z" fill="white"/>
</svg>
