<svg width="12" height="19" viewBox="0 0 12 19" fill="none" xmlns="http://www.w3.org/2000/svg">
<path d="M0.988526 1.36712C0.833665 1.51626 0.710805 1.69341 0.626977 1.88842C0.543149 2.08344 0.5 2.2925 0.5 2.50363C0.5 2.71476 0.543149 2.92381 0.626977 3.11883C0.710805 3.31385 0.833665 3.491 0.988526 3.64014L7.47003 9.89496L0.988526 16.1498C0.676181 16.4512 0.500707 16.86 0.500707 17.2863C0.500707 17.7126 0.676181 18.1214 0.988526 18.4228C1.30087 18.7242 1.7245 18.8936 2.16622 18.8936C2.60794 18.8936 3.03157 18.7242 3.34392 18.4228L11.0115 11.0234C11.1663 10.8743 11.2892 10.6971 11.373 10.5021C11.4569 10.3071 11.5 10.098 11.5 9.8869C11.5 9.67577 11.4569 9.46671 11.373 9.27169C11.2892 9.07668 11.1663 8.89953 11.0115 8.75039L3.34392 1.351C2.70913 0.738413 1.64002 0.738413 0.988526 1.36712Z" fill="#FA6A00"/>
</svg>
