<svg width="40" height="40" viewBox="0 0 40 40" fill="none" xmlns="http://www.w3.org/2000/svg">
<g clip-path="url(#clip0_1_4607)">
<rect width="40" height="40" rx="20" fill="#FA6A00"/>
<path fill-rule="evenodd" clip-rule="evenodd" d="M20.252 14.0138C19.4062 14.0138 18.5358 14.0359 17.689 14.0702L16.6863 14.1175L15.7237 14.1729L14.8195 14.2333L13.9911 14.2967C13.5557 14.3271 13.1454 14.5078 12.8327 14.8069C12.5201 15.1061 12.3254 15.5042 12.2831 15.9309C12.1632 17.1482 12.0504 18.6636 12.0504 20.0551C12.0504 21.4467 12.1632 22.962 12.2831 24.1794C12.3703 25.0574 13.0797 25.74 13.9911 25.8135L14.8195 25.876L15.7237 25.9364L16.6863 25.9928L17.689 26.0401C18.5358 26.0743 19.4062 26.0965 20.252 26.0965C21.0978 26.0965 21.9682 26.0743 22.815 26.0401L23.8176 25.9928L24.7803 25.9374L25.6845 25.877L26.5129 25.8135C26.9482 25.7832 27.3586 25.6024 27.6712 25.3033C27.9839 25.0042 28.1786 24.606 28.2208 24.1794C28.3408 22.962 28.4536 21.4467 28.4536 20.0551C28.4536 18.6636 28.3408 17.1482 28.2208 15.9309C28.1786 15.5042 27.9839 15.1061 27.6712 14.8069C27.3586 14.5078 26.9482 14.3271 26.5129 14.2967L25.6845 14.2343L24.7803 14.1739L23.8176 14.1175L22.815 14.0702C21.9611 14.0341 21.1066 14.0153 20.252 14.0138ZM18.2727 17.331C18.2259 17.4181 18.2015 17.515 18.2016 17.6134V22.4968L18.2077 22.5875C18.2226 22.6848 18.2616 22.7772 18.3211 22.8564C18.3807 22.9356 18.459 22.9994 18.5494 23.042C18.6397 23.0847 18.7394 23.1051 18.8396 23.1013C18.9398 23.0975 19.0375 23.0698 19.1243 23.0204L23.4301 20.5787L23.5172 20.5183C23.5932 20.4559 23.6527 20.3765 23.6907 20.2867C23.7287 20.1969 23.744 20.0995 23.7355 20.0026C23.7269 19.9058 23.6947 19.8124 23.6415 19.7303C23.5884 19.6483 23.5158 19.5801 23.4301 19.5315L19.1243 17.0908L19.0412 17.0506C18.9479 17.0146 18.8471 17.0017 18.7476 17.0127C18.648 17.0238 18.5527 17.0586 18.4699 17.114C18.3872 17.1695 18.3195 17.244 18.2727 17.331Z" fill="white"/>
<path fill-rule="evenodd" clip-rule="evenodd" d="M22.899 12.0584C22.0276 12.0222 21.1285 12 20.252 12C19.369 12.0013 18.4861 12.0208 17.6039 12.0584L16.5746 12.1067L15.5884 12.1641L14.6657 12.2255L13.824 12.29C12.9096 12.359 12.0493 12.7424 11.3944 13.3727C10.7394 14.0031 10.3317 14.8401 10.243 15.7366C10.2286 15.8755 10.2153 16.0175 10.202 16.1645L10.1251 17.0808C10.0533 18.0303 10 19.0654 10 20.0551C10.005 21.0477 10.0467 22.0398 10.1251 23.0295L10.202 23.9458L10.243 24.3737C10.3317 25.2703 10.7396 26.1074 11.3948 26.7378C12.0499 27.3682 12.9105 27.7515 13.825 27.8203L14.6677 27.8837L15.5904 27.9461L16.5756 28.0035L17.6049 28.0519C18.4868 28.0895 19.3693 28.109 20.252 28.1103C21.1347 28.109 22.0172 28.0895 22.899 28.0519L23.9283 28.0035L24.9146 27.9461L25.8373 27.8837L26.6779 27.8203C27.5926 27.7517 28.4534 27.3686 29.1088 26.7381C29.7642 26.1077 30.1722 25.2704 30.261 24.3737C30.2753 24.2347 30.2887 24.0928 30.302 23.9458L30.3789 23.0295C30.4506 22.08 30.504 21.0449 30.504 20.0551C30.504 19.0654 30.4506 18.0303 30.3789 17.0808L30.302 16.1645L30.261 15.7366C30.1722 14.84 29.7644 14.0028 29.1092 13.3724C28.454 12.742 27.5935 12.3587 26.6789 12.29L25.8362 12.2255L24.9136 12.1641L23.9283 12.1067L22.899 12.0584ZM17.689 14.0702C18.5358 14.0359 19.4062 14.0138 20.252 14.0138C21.1066 14.0153 21.9611 14.0341 22.815 14.0702L23.8176 14.1175L24.7803 14.1739L25.6845 14.2343L26.5129 14.2967C26.9482 14.3271 27.3586 14.5078 27.6712 14.8069C27.9839 15.1061 28.1786 15.5042 28.2208 15.9309C28.3408 17.1482 28.4536 18.6636 28.4536 20.0551C28.4536 21.4467 28.3408 22.962 28.2208 24.1794C28.1786 24.606 27.9839 25.0042 27.6712 25.3033C27.3586 25.6024 26.9482 25.7832 26.5129 25.8135L25.6845 25.877L24.7803 25.9374L23.8176 25.9928L22.815 26.0401C21.9682 26.0743 21.0978 26.0965 20.252 26.0965C19.4062 26.0965 18.5358 26.0743 17.689 26.0401L16.6863 25.9928L15.7237 25.9364L14.8195 25.876L13.9911 25.8135C13.0797 25.74 12.3703 25.0574 12.2831 24.1794C12.1632 22.962 12.0504 21.4467 12.0504 20.0551C12.0504 18.6636 12.1632 17.1482 12.2831 15.9309C12.3254 15.5042 12.5201 15.1061 12.8327 14.8069C13.1454 14.5078 13.5557 14.3271 13.9911 14.2967L14.8195 14.2333L15.7237 14.1729L16.6863 14.1175L17.689 14.0702Z" fill="white"/>
</g>
<defs>
<clipPath id="clip0_1_4607">
<rect width="40" height="40" rx="20" fill="white"/>
</clipPath>
</defs>
</svg>
